<?xml version="1.0" standalone="no"?>
<!DOCTYPE svg PUBLIC "-//W3C//DTD SVG 20010904//EN"
 "http://www.w3.org/TR/2001/REC-SVG-20010904/DTD/svg10.dtd">
<svg version="1.0" xmlns="http://www.w3.org/2000/svg"
 width="512.000000pt" height="512.000000pt" viewBox="0 0 512.000000 512.000000"
 preserveAspectRatio="xMidYMid meet">

<g transform="translate(0.000000,512.000000) scale(0.100000,-0.100000)"
fill="#000000" stroke="none">
<path d="M643 4784 c-472 -224 -543 -260 -553 -284 -7 -18 -10 -77 -8 -164 4
-172 2 -170 138 -174 l100 -4 0 -358 0 -358 -30 -11 c-40 -13 -50 -44 -50
-145 l0 -84 -60 -4 c-94 -7 -95 -9 -95 -198 0 -140 2 -161 18 -177 17 -17 76
-18 1080 -21 756 -2 1070 1 1089 9 42 17 50 52 46 208 -4 167 -6 172 -98 179
l-60 4 0 84 c0 101 -10 132 -50 145 l-30 11 0 359 0 359 85 0 c94 0 128 11
144 47 15 32 14 265 0 297 -9 19 -59 47 -213 120 -671 318 -883 416 -896 416
-8 0 -259 -115 -557 -256z m896 -73 c185 -87 400 -189 479 -226 l142 -68 0
-49 0 -48 -457 1 c-419 1 -454 2 -416 16 26 9 59 33 86 63 90 100 90 220 0
320 -95 106 -236 108 -338 5 -74 -73 -92 -151 -59 -248 18 -54 93 -127 146
-144 24 -8 -86 -11 -424 -12 l-458 -1 0 49 0 48 478 226 c262 125 479 226 481
227 2 0 155 -71 340 -159z m-284 -96 c50 -49 15 -135 -55 -135 -41 0 -80 39
-80 80 0 41 39 80 80 80 19 0 40 -9 55 -25z m-615 -815 l0 -360 -80 0 -80 0 0
360 0 360 80 0 80 0 0 -360z m320 0 l0 -360 -80 0 -80 0 0 360 0 360 80 0 80
0 0 -360z m320 0 l0 -360 -80 0 -80 0 0 360 0 360 80 0 80 0 0 -360z m320 0
l0 -360 -80 0 -80 0 0 360 0 360 80 0 80 0 0 -360z m320 0 l0 -360 -80 0 -80
0 0 360 0 360 80 0 80 0 0 -360z m80 -560 l0 -40 -800 0 -800 0 0 40 0 40 800
0 800 0 0 -40z m160 -240 l0 -40 -960 0 -960 0 0 40 0 40 960 0 960 0 0 -40z"/>
<path d="M2444 4149 c-46 -24 -56 -87 -21 -123 21 -21 34 -23 177 -29 85 -4
188 -14 228 -22 238 -47 446 -145 643 -301 84 -66 109 -75 146 -49 21 15 23
14 28 -7 5 -23 55 -269 55 -273 0 -4 -282 54 -288 59 -3 4 0 12 6 18 7 7 12
25 12 42 0 71 -231 226 -450 304 -148 52 -238 67 -415 67 -201 0 -335 -23
-377 -66 -35 -35 -36 -72 -2 -106 28 -28 27 -28 199 1 269 47 576 -20 799
-174 l47 -32 -36 -39 c-37 -41 -42 -63 -24 -103 15 -31 38 -40 174 -66 61 -12
181 -37 267 -56 213 -46 243 -45 267 14 10 23 7 50 -18 162 -16 74 -44 208
-62 298 -37 186 -50 212 -107 212 -29 0 -45 -8 -78 -41 l-42 -41 -51 40 c-170
135 -422 246 -661 293 -124 24 -383 35 -416 18z"/>
<path d="M3643 3099 c-26 -9 -53 -47 -53 -72 0 -11 14 -60 31 -110 42 -127 62
-267 56 -399 -5 -120 2 -145 48 -164 49 -20 91 3 106 58 15 56 6 308 -15 403
-23 104 -66 232 -87 259 -21 26 -55 36 -86 25z"/>
<path d="M3975 3005 c-30 -29 -31 -42 -4 -175 15 -77 22 -149 23 -269 l2 -164
29 -24 c22 -19 35 -23 59 -19 40 8 56 25 66 72 26 109 -5 441 -51 555 -20 51
-86 63 -124 24z"/>
<path d="M988 2689 l-31 -30 6 -142 c7 -156 30 -310 53 -344 28 -44 101 -42
130 3 16 23 16 32 0 122 -10 53 -20 160 -23 237 -6 128 -8 141 -29 162 -32 32
-69 29 -106 -8z"/>
<path d="M1305 2688 l-28 -33 6 -140 c10 -221 64 -420 120 -439 36 -13 77 2
96 36 14 24 14 33 -3 95 -39 139 -47 191 -53 327 -5 129 -8 142 -29 163 -34
34 -76 30 -109 -9z"/>
<path d="M3735 2242 c-88 -43 -330 -158 -537 -256 -325 -154 -378 -182 -388
-206 -7 -18 -10 -77 -8 -164 4 -172 2 -170 138 -174 l100 -4 0 -358 0 -358
-30 -11 c-40 -13 -50 -44 -50 -145 l0 -84 -60 -4 c-94 -7 -95 -9 -95 -198 0
-140 2 -161 18 -177 17 -17 76 -18 1080 -21 756 -2 1070 1 1089 9 42 17 50 52
46 208 -4 167 -6 172 -98 179 l-60 4 0 84 c0 101 -10 132 -50 145 l-30 11 0
359 0 359 85 0 c94 0 128 11 144 47 14 31 14 265 0 296 -12 27 12 15 -469 242
-201 95 -422 200 -491 234 -69 33 -137 61 -150 61 -13 0 -96 -35 -184 -78z
m524 -251 c185 -87 400 -189 479 -226 l142 -68 0 -49 0 -48 -457 1 c-419 1
-454 2 -416 16 26 9 59 33 86 63 90 100 90 220 0 320 -95 106 -236 108 -338 5
-74 -73 -92 -151 -59 -248 18 -54 93 -127 146 -144 24 -8 -86 -11 -424 -12
l-458 -1 0 49 0 48 478 226 c262 125 479 226 481 227 2 0 155 -71 340 -159z
m-284 -96 c50 -49 15 -135 -55 -135 -41 0 -80 39 -80 80 0 41 39 80 80 80 19
0 40 -9 55 -25z m-615 -815 l0 -360 -80 0 -80 0 0 360 0 360 80 0 80 0 0 -360z
m320 0 l0 -360 -80 0 -80 0 0 360 0 360 80 0 80 0 0 -360z m320 0 l0 -360 -80
0 -80 0 0 360 0 360 80 0 80 0 0 -360z m320 0 l0 -360 -80 0 -80 0 0 360 0
360 80 0 80 0 0 -360z m320 0 l0 -360 -80 0 -80 0 0 360 0 360 80 0 80 0 0
-360z m80 -560 l0 -40 -800 0 -800 0 0 40 0 40 800 0 800 0 0 -40z m160 -240
l0 -40 -960 0 -960 0 0 40 0 40 960 0 960 0 0 -40z"/>
<path d="M1218 2004 c-15 -8 -31 -26 -34 -40 -8 -31 102 -599 123 -632 17 -27
58 -45 85 -36 11 3 38 22 59 41 l39 35 52 -45 c143 -121 343 -230 534 -290
175 -55 283 -71 484 -71 218 0 343 20 378 59 36 43 28 96 -19 120 -25 13 -39
13 -111 1 -138 -24 -256 -28 -383 -16 -319 31 -608 160 -845 377 -66 60 -90
69 -129 50 l-29 -14 -27 139 c-15 76 -26 141 -23 143 2 3 66 -8 141 -22 114
-23 136 -30 131 -43 -4 -8 -9 -30 -12 -49 -4 -30 1 -38 59 -93 228 -214 546
-338 866 -338 108 0 115 1 138 25 32 31 33 78 2 109 -21 21 -34 24 -163 29
-76 3 -173 13 -214 22 -147 32 -326 116 -439 205 l-52 41 35 40 c49 53 48 124
-1 144 -17 6 -601 125 -613 125 -3 -1 -17 -7 -32 -16z"/>
</g>
</svg>
