<?xml version="1.0" standalone="no"?>
<!DOCTYPE svg PUBLIC "-//W3C//DTD SVG 20010904//EN"
 "http://www.w3.org/TR/2001/REC-SVG-20010904/DTD/svg10.dtd">
<svg version="1.0" xmlns="http://www.w3.org/2000/svg"
 width="512.000000pt" height="512.000000pt" viewBox="0 0 512.000000 512.000000"
 preserveAspectRatio="xMidYMid meet">

<g transform="translate(0.000000,512.000000) scale(0.100000,-0.100000)"
fill="#000000" stroke="none">
<path d="M2440 4271 c-118 -40 -1546 -672 -1562 -692 -37 -44 -15 -129 38
-149 21 -8 24 -16 24 -60 0 -28 5 -60 11 -72 13 -25 67 -48 112 -48 l35 0 4
-62 c4 -56 8 -64 41 -93 l37 -32 0 -811 0 -810 -96 -4 c-91 -3 -97 -5 -120
-31 -21 -25 -24 -38 -24 -111 0 -81 -1 -84 -25 -90 -13 -3 -34 -16 -45 -28
-18 -19 -20 -35 -20 -140 0 -113 1 -120 25 -143 l24 -25 1661 0 1661 0 24 25
c24 23 25 30 25 143 0 105 -2 121 -20 140 -11 12 -32 25 -45 28 -24 6 -25 9
-25 90 0 73 -3 86 -24 111 -23 26 -29 28 -120 31 l-96 4 0 810 0 811 36 31
c32 28 36 37 41 94 l6 62 34 0 c45 0 99 23 112 48 6 12 11 44 11 72 0 44 3 52
24 60 53 20 75 105 39 149 -18 22 -1452 655 -1566 692 -73 24 -165 23 -237 0z
m975 -381 c418 -183 766 -337 773 -343 17 -14 15 -54 -4 -61 -20 -8 -3228 -8
-3248 0 -19 7 -21 47 -3 61 11 10 1455 643 1527 670 22 9 64 12 115 10 l80 -4
760 -333z m-1585 -509 c0 -74 15 -71 -418 -71 -262 1 -390 4 -399 12 -7 6 -13
30 -13 54 l0 44 415 0 415 0 0 -39z m1400 4 c0 -85 50 -135 135 -135 l35 0 0
-57 c0 -53 3 -59 40 -94 l40 -38 0 -811 0 -810 -920 0 -920 0 0 810 0 811 40
38 c37 35 40 41 40 94 l0 57 35 0 c85 0 135 50 135 135 l0 35 670 0 670 0 0
-35z m890 -9 c0 -24 -6 -48 -13 -54 -9 -8 -137 -11 -399 -12 -433 0 -418 -3
-418 71 l0 39 415 0 415 0 0 -44z m-2460 -174 c0 -26 -5 -53 -12 -60 -9 -9
-76 -12 -240 -12 -256 0 -248 -3 -248 79 l0 41 250 0 250 0 0 -48z m2300 7 c0
-82 8 -79 -248 -79 -164 0 -231 3 -240 12 -7 7 -12 34 -12 60 l0 48 250 0 250
0 0 -41z m-2380 -954 l0 -815 -170 0 -170 0 0 808 c0 445 3 812 7 815 3 4 80
7 170 7 l163 0 0 -815z m2298 -2 l2 -813 -170 0 -170 0 0 815 0 815 168 -2
167 -3 3 -812z m226 -879 c13 -5 16 -22 16 -85 l0 -79 -1560 0 -1560 0 0 79
c0 54 4 81 13 84 18 8 3072 8 3091 1z m104 -336 l3 -108 -1651 0 -1650 0 0
103 c0 57 3 107 7 110 3 4 745 6 1647 5 l1641 -3 3 -107z"/>
<path d="M2685 4106 c-16 -8 -93 -77 -169 -155 l-140 -140 -52 49 c-45 43 -59
50 -92 50 -48 0 -86 -28 -102 -74 -17 -51 4 -88 107 -188 l90 -88 53 0 53 0
194 192 c214 213 228 233 199 301 -11 27 -26 42 -50 52 -43 18 -52 18 -91 1z
m77 -63 c10 -9 18 -23 18 -32 0 -9 -84 -100 -187 -203 -230 -230 -214 -225
-331 -104 -45 46 -82 89 -82 95 0 28 22 51 48 51 19 0 43 -16 83 -56 41 -41
62 -54 75 -50 11 3 89 76 174 161 85 85 161 155 169 155 8 0 23 -7 33 -17z"/>
<path d="M2285 3275 c-14 -13 -25 -34 -25 -47 0 -13 29 -74 65 -137 36 -62 65
-115 65 -117 0 -1 -28 -16 -62 -33 -120 -57 -222 -165 -275 -291 -28 -65 -28
-65 -31 -348 -4 -311 0 -336 60 -456 39 -77 143 -181 224 -224 306 -160 678 0
778 337 21 72 23 548 2 626 -41 157 -149 287 -293 356 -35 17 -63 32 -63 33 0
2 29 55 65 117 36 63 65 124 65 137 0 13 -11 34 -25 47 l-24 25 -251 0 -251 0
-24 -25z m515 -46 c0 -6 -30 -64 -67 -130 -68 -118 -68 -118 -105 -119 l-38 0
0 69 c0 76 -16 105 -45 81 -11 -9 -15 -32 -15 -81 l0 -69 -37 0 c-38 1 -38 1
-105 119 -38 66 -68 124 -68 130 0 8 72 11 240 11 168 0 240 -3 240 -11z m-28
-342 c115 -56 206 -162 248 -287 19 -55 23 -94 27 -255 7 -252 -5 -353 -52
-451 -82 -170 -247 -274 -435 -274 -188 0 -353 104 -435 274 -47 98 -59 199
-52 451 4 162 8 200 27 255 47 140 144 245 276 300 43 17 68 19 194 17 136 -2
148 -4 202 -30z"/>
<path d="M2537 2664 c-4 -4 -7 -31 -7 -61 l0 -53 -48 0 c-85 0 -122 -47 -122
-155 0 -127 35 -155 192 -155 138 0 148 -7 148 -100 0 -92 -11 -100 -140 -100
-118 0 -140 11 -140 73 0 51 -11 70 -36 65 -16 -3 -20 -14 -22 -60 -3 -53 0
-60 31 -94 28 -31 41 -37 85 -42 l51 -4 3 -57 c3 -52 5 -56 28 -56 23 0 25 4
28 56 l3 57 51 4 c44 5 57 11 86 43 34 37 34 37 30 120 -5 128 -40 155 -206
155 -122 0 -132 7 -132 98 0 67 12 87 57 95 25 5 127 4 175 -1 30 -3 48 -32
48 -77 0 -33 5 -47 18 -54 27 -15 42 5 42 56 0 85 -44 133 -122 133 l-47 0 -3
58 c-3 49 -6 57 -23 60 -12 2 -24 0 -28 -4z"/>
<path d="M1397 2893 c-4 -3 -7 -289 -7 -635 0 -552 2 -629 15 -634 8 -4 22 -1
30 6 13 11 15 95 15 625 0 338 -3 620 -6 629 -6 16 -35 22 -47 9z"/>
<path d="M3677 2894 c-4 -4 -7 -287 -7 -629 0 -539 2 -624 15 -635 8 -7 22
-10 30 -6 13 5 15 80 13 638 -3 629 -3 633 -23 636 -12 2 -24 0 -28 -4z"/>
</g>
</svg>
